<?xml version="1.0" encoding="utf-8"?>
<!-- Generator: Adobe Illustrator 28.0.0, SVG Export Plug-In . SVG Version: 6.00 Build 0)  -->
<svg version="1.1" id="Calque_1" xmlns="http://www.w3.org/2000/svg" xmlns:xlink="http://www.w3.org/1999/xlink" x="0px" y="0px"
	 viewBox="0 0 552.8 90.1" style="enable-background:new 0 0 552.8 90.1;" xml:space="preserve">
<style type="text/css">
	.st0{fill:#FFFFFF;}
</style>
<g>
	<path class="st0" d="M66.7,7.9l-9.6,16.6c-5.8-4.4-10.5-6.4-15.2-6.4c-6,0-9.8,2.9-9.8,7.5c0,4.2,2.2,6.2,11,10.4
		C57.5,42.9,62.4,49,62.4,60.5c0,17.4-13.8,29.6-33.2,29.6c-10.4,0-17.7-2.3-29.2-9.5L9.9,64c7.8,5.3,12.3,7.2,18.3,7.2
		c6.9,0,11.6-3.5,11.6-8.8c0-3.8-2-5.8-10.1-9.9c-15.5-7.8-20-13.4-20-25.1C9.6,11.6,23.1,0,41.5,0C50.3,0,58.2,2.5,66.7,7.9z"/>
	<path class="st0" d="M75.1,1.7h29c9.9,0,18.7,1.3,25.2,7.7c6.5,6.4,7.3,14.2,7.3,19.9c0,6.2-0.9,14-6.8,20.4
		c-6,6.5-16.4,10-30.2,10H90l-3.5,28.7h-22L75.1,1.7z M94.9,19.9l-2.6,21.6h6.9c3.1,0,8.8-0.3,12.2-3.6c2.5-2.5,2.7-5.7,2.7-7.7
		c0-3.8-1.2-6.1-2.5-7.4c-2.9-3-7.5-2.9-10.7-2.9C101,19.9,94.9,19.9,94.9,19.9z"/>
	<path class="st0" d="M164.4,1.7l-10.7,86.7h-22l10.7-86.7C142.5,1.7,164.4,1.7,164.4,1.7z"/>
	<path class="st0" d="M260.5,1.7l-10.7,86.7h-24.1l-23-38.9c-3.8-6.1-7-12.7-10.7-21.5V32c0,6.5-0.3,11.1-0.9,16.4l-4.9,40h-22
		L175,1.7h23.7l24.7,41.9l3.8,7l3.4,6.6l1.7,3.2c0.1-5.5,0.4-9.8,1-14.8l5.3-43.9C238.6,1.7,260.5,1.7,260.5,1.7z"/>
	<path class="st0" d="M356.6,1.7l-10.7,86.7h-24l-23-38.9c-3.8-6.1-7-12.7-10.7-21.5V32c0,6.5-0.3,11.1-0.9,16.4l-4.9,40h-22
		L271,1.7h23.7l24.7,41.9l3.8,7l3.4,6.6l1.7,3.2c0.1-5.5,0.4-9.8,1-14.8l5.3-43.9C334.6,1.7,356.6,1.7,356.6,1.7z"/>
	<path class="st0" d="M389.1,1.7l-10.7,86.7h-22l10.7-86.7C367.1,1.7,389.1,1.7,389.1,1.7z"/>
	<path class="st0" d="M421.6,1.7l-4.7,38l28.6-38h25.2l-33.1,44.2l29.6,42.5h-26.4l-18.6-27.7c-2.3-3.5-4.8-8.1-6.5-11.4l-4.8,39.1
		h-22l10.7-86.7C399.6,1.7,421.6,1.7,421.6,1.7z"/>
	<path class="st0" d="M552.8,1.7l-6.1,50.2c-2.1,16.6-4.3,23.3-9.9,28.6c-6.5,6.2-16.9,9.6-29.6,9.6C484.6,90.1,471,79,471,60.5
		c0-2.6,0.4-6.6,1-12l5.7-46.8h21.8l-5.7,46.8c-0.3,2.6-0.4,5.1-0.4,7.3c0,9.1,4.7,13.5,14.3,13.5c5.5,0,9.8-1.4,12.3-4.3
		c2.7-3.1,3.6-6.1,4.7-13.9l6-49.4C530.8,1.7,552.8,1.7,552.8,1.7z"/>
</g>
</svg>
