<?xml version="1.0" encoding="utf-8"?>
<!-- Generator: Adobe Illustrator 27.4.0, SVG Export Plug-In . SVG Version: 6.00 Build 0)  -->
<svg version="1.1" id="Calque_1" xmlns="http://www.w3.org/2000/svg" xmlns:xlink="http://www.w3.org/1999/xlink" x="0px" y="0px"
	 viewBox="0 0 552.76 90.09" style="enable-background:new 0 0 552.76 90.09;" xml:space="preserve">
<g>
	<path d="M66.69,7.93l-9.62,16.64c-5.85-4.42-10.53-6.37-15.21-6.37c-5.98,0-9.75,2.86-9.75,7.54c0,4.16,2.21,6.24,11.05,10.4
		C57.46,42.9,62.4,49.01,62.4,60.45c0,17.42-13.78,29.64-33.15,29.64c-10.4,0-17.68-2.34-29.25-9.49l9.88-16.64
		c7.8,5.33,12.35,7.15,18.33,7.15c6.89,0,11.57-3.51,11.57-8.84c0-3.77-1.95-5.85-10.14-9.88C14.17,44.59,9.62,39,9.62,27.3
		C9.62,11.57,23.14,0,41.47,0C50.31,0,58.24,2.47,66.69,7.93z"/>
	<path d="M75.14,1.69h28.99c9.88,0,18.72,1.3,25.22,7.67s7.28,14.17,7.28,19.89c0,6.24-0.91,14.04-6.76,20.41
		c-5.98,6.5-16.38,10.01-30.16,10.01h-9.75L86.45,88.4H64.48L75.14,1.69z M94.9,19.89l-2.6,21.58h6.89c3.12,0,8.84-0.26,12.22-3.64
		c2.47-2.47,2.73-5.72,2.73-7.67c0-3.77-1.17-6.11-2.47-7.41c-2.86-2.99-7.54-2.86-10.66-2.86H94.9z"/>
	<path d="M164.45,1.69L153.79,88.4h-21.97l10.66-86.71H164.45z"/>
	<path d="M260.52,1.69L249.86,88.4h-24.05L202.8,49.53c-3.77-6.11-7.02-12.74-10.66-21.45v3.9c0,6.5-0.26,11.05-0.91,16.38
		l-4.94,40.04h-21.97l10.66-86.71h23.66l24.7,41.86l3.77,7.02l3.38,6.63l1.69,3.25c0.13-5.46,0.39-9.75,1.04-14.82l5.33-43.94
		H260.52z"/>
	<path d="M356.59,1.69L345.93,88.4h-24.05l-23.01-38.87c-3.77-6.11-7.02-12.74-10.66-21.45v3.9c0,6.5-0.26,11.05-0.91,16.38
		l-4.94,40.04h-21.97l10.66-86.71h23.66l24.7,41.86l3.77,7.02l3.38,6.63l1.69,3.25c0.13-5.46,0.39-9.75,1.04-14.82l5.33-43.94
		H356.59z"/>
	<path d="M389.09,1.69L378.42,88.4h-21.97l10.66-86.71H389.09z"/>
	<path d="M421.58,1.69l-4.68,37.96l28.6-37.96h25.22l-33.15,44.2l29.64,42.51h-26.39l-18.59-27.69c-2.34-3.51-4.81-8.06-6.5-11.44
		l-4.81,39.13h-21.97l10.66-86.71H421.58z"/>
	<path d="M552.76,1.69l-6.11,50.18c-2.08,16.64-4.29,23.27-9.88,28.6c-6.5,6.24-16.9,9.62-29.64,9.62
		c-22.49,0-36.14-11.05-36.14-29.64c0-2.6,0.39-6.63,1.04-11.96l5.72-46.8h21.84l-5.72,46.8c-0.26,2.6-0.39,5.07-0.39,7.28
		c0,9.1,4.68,13.52,14.3,13.52c5.46,0,9.75-1.43,12.35-4.29c2.73-3.12,3.64-6.11,4.68-13.91l5.98-49.4H552.76z"/>
</g>
</svg>
