<svg xmlns="http://www.w3.org/2000/svg" width="71" height="46.467" viewBox="0 0 71 46.467">
  <g id="Calque_1-2" data-name="Calque 1-2" transform="translate(-3595.613 -6549.573)">
    <g id="Groupe_64" data-name="Groupe 64">
      <path id="Tracé_295" data-name="Tracé 295" d="M3609.793,6552.376c3.87,1.85,7.52,4.34,9.56,8.22s1.56,8.19-.61,11.97c-4.1,7.17-12.48,12.82-11.62,22.03.18,1.91,3.18,1.92,3,0-.7-7.47,5.88-12.75,9.78-18.29a19.2,19.2,0,0,0,3.78-9.36,14.888,14.888,0,0,0-2.93-9.77,24.3,24.3,0,0,0-9.45-7.39c-1.73-.83-3.26,1.76-1.51,2.59Z"/>
      <path id="Tracé_296" data-name="Tracé 296" d="M3650.083,6549.786a20.846,20.846,0,0,0-8.66,8.69,16.9,16.9,0,0,0-.93,12.77c2.67,8.13,11.15,14.18,10.45,23.35-.15,1.93,2.85,1.92,3,0,.32-4.16-1.13-8.13-3.2-11.68s-4.66-6.55-6.42-10.18a14.719,14.719,0,0,1-.72-11.78c1.52-3.93,4.52-6.57,8-8.58a1.5,1.5,0,0,0-1.51-2.59h-.01Z"/>
      <g id="Groupe_62" data-name="Groupe 62">
        <rect id="Rectangle_51" data-name="Rectangle 51" width="4.81" height="3.11" transform="translate(3595.613 6567.866)" fill="#cbd748"/>
        <path id="Tracé_297" data-name="Tracé 297" d="M3610.523,6569.426h-10.34v4.97Z" fill="#cbd748"/>
        <path id="Tracé_298" data-name="Tracé 298" d="M3610.523,6569.426h-10.34v-4.98Z" fill="#cbd748"/>
      </g>
      <g id="Groupe_63" data-name="Groupe 63">
        <rect id="Rectangle_52" data-name="Rectangle 52" width="4.81" height="3.11" transform="translate(3661.803 6567.446)" fill="#cbd748"/>
        <path id="Tracé_299" data-name="Tracé 299" d="M3651.7,6569.006h10.34v4.98Z" fill="#cbd748"/>
        <path id="Tracé_300" data-name="Tracé 300" d="M3651.7,6569.006h10.34v-4.97Z" fill="#cbd748"/>
      </g>
      <path id="Tracé_301" data-name="Tracé 301" d="M3629.873,6579.336v.98a1.268,1.268,0,0,0,.13.58,1.028,1.028,0,0,0,.31.48,1.138,1.138,0,0,0,.48.31,1.149,1.149,0,0,0,.58.13l.4-.05a1.494,1.494,0,0,0,.66-.39l.23-.3a1.443,1.443,0,0,0,.2-.76v-.98a1.265,1.265,0,0,0-.13-.58,1.025,1.025,0,0,0-.31-.48,1.139,1.139,0,0,0-.48-.31,1.155,1.155,0,0,0-.58-.13l-.4.05a1.486,1.486,0,0,0-.66.39l-.23.3a1.442,1.442,0,0,0-.2.76Z"/>
      <path id="Tracé_302" data-name="Tracé 302" d="M3611.313,6587.056a80.474,80.474,0,0,0,36.88-.25c1.88-.45,1.08-3.35-.8-2.89a77.333,77.333,0,0,1-35.29.25c-1.88-.43-2.68,2.46-.8,2.89h.01Z"/>
      <path id="Tracé_303" data-name="Tracé 303" d="M3609.3,6592.516a89.579,89.579,0,0,0,42.35-.28c1.87-.47,1.08-3.36-.8-2.89a86.168,86.168,0,0,1-40.76.28c-1.88-.44-2.68,2.45-.8,2.89h.01Z"/>
    </g>
  </g>
</svg>
